<?xml version="1.0" encoding="UTF-8"?>
<svg xmlns="http://www.w3.org/2000/svg" xmlns:xlink="http://www.w3.org/1999/xlink" width="45px" height="45px" viewBox="0 0 45 45" version="1.1">
<g id="surface1">
<path style=" stroke:none;fill-rule:nonzero;fill:rgb(100%,100%,100%);fill-opacity:1;" d="M 21.359375 1.136719 C 19.453125 5.792969 18.3125 8.847656 16.195312 13.375 C 17.492188 14.75 19.085938 16.355469 21.671875 18.164062 C 18.890625 17.011719 16.992188 15.863281 15.570312 14.671875 C 12.863281 20.332031 8.613281 28.382812 0 43.863281 C 6.773438 39.953125 12.019531 37.542969 16.910156 36.621094 C 16.707031 35.71875 16.582031 34.746094 16.589844 33.71875 L 16.597656 33.507812 C 16.707031 29.164062 18.960938 25.832031 21.636719 26.058594 C 24.308594 26.285156 26.386719 29.984375 26.285156 34.328125 C 26.261719 35.140625 26.167969 35.921875 26.007812 36.65625 C 30.847656 37.601562 36.039062 40.003906 42.71875 43.863281 C 41.402344 41.4375 40.230469 39.25 39.101562 37.167969 C 37.335938 35.800781 35.492188 34.011719 31.734375 32.078125 C 34.320312 32.75 36.164062 33.527344 37.605469 34.394531 C 26.1875 13.144531 25.273438 10.316406 21.355469 1.132812 Z M 42.933594 40.046875 L 42.933594 38.882812 L 42.492188 38.882812 L 42.492188 38.722656 L 43.546875 38.722656 L 43.546875 38.882812 L 43.109375 38.882812 L 43.109375 40.046875 Z M 43.734375 40.046875 L 43.734375 38.722656 L 43.996094 38.722656 L 44.3125 39.660156 C 44.34375 39.75 44.363281 39.8125 44.371094 39.859375 C 44.386719 39.816406 44.414062 39.742188 44.445312 39.644531 L 44.757812 38.722656 L 45 38.722656 L 45 40.050781 L 44.832031 40.050781 L 44.832031 38.9375 L 44.445312 40.050781 L 44.28125 40.050781 L 43.902344 38.921875 L 43.902344 40.050781 L 43.734375 40.050781 Z M 43.734375 40.046875 "/>
</g>
</svg>
